<svg version="1" xmlns="http://www.w3.org/2000/svg" width="933.333" height="933.333"
     viewBox="0 0 700.000000 700.000000">
    <path d="M323.5 1.1c-69.6 5.3-137.7 32.1-192 75.6-14.4 11.5-37.3 33.9-49.4 48.3-45.2 53.8-71.8 116.3-80.3 188.5-1.7 14.5-1.7 57.6 0 73 6.3 57 25.5 110 56.7 157 27 40.5 64.4 77.1 104.7 102.4 45.7 28.7 94.4 45.6 150.3 52.3 13.9 1.6 59.5 1.6 73 0 55.8-6.8 103.3-23.2 148.2-51.1 37.4-23.2 73.5-56.8 98.9-92.1 75.9-105.3 87.5-244.3 30-360-25.7-51.7-63.9-96.6-110.3-129.8C487.1 17.9 404.9-5.1 323.5 1.1zm192.1 214.6c5.6 2.8 8.4 8.2 8.4 16.1 0 19.1-11.5 97.6-33.6 227.7-11.6 68.4-11.8 69.1-20.1 76.4-8.6 7.6-22.7 10.4-31.8 6.2-4.1-1.8-75.6-49.8-114.5-76.7-18.7-13-21.8-15.5-23.8-19.4-3.1-6-2.7-13.4 1.2-21.6 3.5-7.2 15.7-19.4 55.6-55.8 34.1-31 61.4-57.7 63.4-62.1 2-4.1 2-8.1.2-8.8-3.5-1.4-13.2 3.3-28.9 14-6.2 4.2-25.1 17.4-42.2 29.3-37.4 26.1-58.7 40.4-80 53.5-26.6 16.4-32.1 18.5-48.3 18.5-15.2 0-39.6-6.4-66.7-17.3-21.8-8.8-28.6-13.1-30-18.9-1.2-4.9 4.7-9.5 25.5-20.1 25.3-12.8 79.3-37.2 121-54.7 6.3-2.6 17.6-7.3 25-10.5 81.8-34.4 182.2-74.2 194.4-77 8.4-1.9 20.3-1.4 25.2 1.2z"/>
</svg>