<?xml version="1.0" standalone="no"?>
<!DOCTYPE svg PUBLIC "-//W3C//DTD SVG 20010904//EN"
 "http://www.w3.org/TR/2001/REC-SVG-20010904/DTD/svg10.dtd">
<svg version="1.0" xmlns="http://www.w3.org/2000/svg"
 width="700.000000pt" height="700.000000pt" viewBox="0 0 700.000000 700.000000"
 preserveAspectRatio="xMidYMid meet">
<metadata>
Created by potrace 1.11, written by Peter Selinger 2001-2013
</metadata>
<g transform="translate(0.000000,700.000000) scale(0.100000,-0.100000)"
fill="#000000" stroke="none">
<path d="M3235 6989 c-696 -53 -1377 -321 -1920 -756 -144 -115 -373 -339
-494 -483 -452 -538 -718 -1163 -803 -1885 -17 -145 -17 -576 0 -730 63 -570
255 -1100 567 -1570 270 -405 644 -771 1047 -1024 457 -287 944 -456 1503
-523 139 -16 595 -16 730 0 558 68 1033 232 1482 511 374 232 735 568 989 921
759 1053 875 2443 300 3600 -257 517 -639 966 -1103 1298 -662 473 -1484 703
-2298 641z m1939 -2137 c39 -37 56 -81 56 -147 0 -61 -578 -2807 -607 -2883
-20 -52 -80 -109 -126 -117 -39 -8 -107 8 -153 35 -17 10 -221 158 -454 330
-232 172 -428 313 -435 314 -7 0 -121 -103 -254 -231 -254 -245 -265 -253
-357 -253 -25 0 -50 7 -63 18 -15 12 -63 157 -185 561 -91 299 -167 545 -168
546 -2 1 -201 64 -443 140 -242 75 -453 143 -470 150 -115 48 -111 150 9 220
23 13 539 216 1146 450 608 235 1380 533 1715 662 336 130 626 239 645 242 50
10 110 -6 144 -37z"/>
</g>
</svg>
